<svg width="300" height="125" viewBox="0 0 300 125" fill="none" xmlns="http://www.w3.org/2000/svg">
<g clip-path="url(#clip0_58_85)">
<path fill-rule="evenodd" clip-rule="evenodd" d="M268.326 36.7246C268.326 30.0046 273.762 24.5754 280.462 24.5754C283.678 24.5754 286.768 25.8521 289.044 28.1388C291.32 30.4115 292.598 33.5119 292.598 36.7386C292.598 43.4585 287.162 48.8879 280.462 48.8879C273.762 48.8879 268.326 43.4445 268.326 36.7386V36.7246ZM262.398 44.1879C265.418 51.511 272.553 56.2809 280.462 56.2809C291.249 56.2809 299.986 47.5408 300 36.7386C300 28.8262 295.252 21.6714 287.962 18.6411C280.658 15.5968 272.245 17.2663 266.654 22.8639C261.064 28.4614 259.378 36.879 262.398 44.2022V44.1879ZM247.284 9.6064C247.284 6.23945 250.009 3.51779 253.366 3.51779V3.64406C256.681 3.64406 259.378 6.29555 259.448 9.6064C259.448 12.9734 256.723 15.695 253.366 15.695C250.009 15.695 247.284 12.9734 247.284 9.6064ZM244.461 13.3381C245.964 16.9296 249.49 19.2584 253.38 19.2444C258.662 19.2163 262.932 14.9094 262.932 9.62044C262.932 5.72037 260.586 2.21309 256.99 0.726015C253.394 -0.761066 249.251 0.0806777 246.512 2.8444C243.773 5.60813 242.958 9.76074 244.461 13.3522V13.3381Z" fill="#FF8B21"/>
<path fill-rule="evenodd" clip-rule="evenodd" d="M194.807 71.0397C192.715 75.7673 191.661 80.9022 191.717 86.0787C191.675 91.2695 192.729 96.418 194.807 101.174C196.788 105.761 199.64 109.914 203.221 113.407C206.859 116.929 211.143 119.706 215.835 121.6C225.836 125.655 237.031 125.655 247.032 121.6C251.709 119.692 255.979 116.915 259.617 113.407C263.199 109.914 266.064 105.761 268.059 101.174C270.067 96.404 271.065 91.2555 270.981 86.0787C271.065 80.9162 270.067 75.7956 268.059 71.0397C263.971 61.7382 256.429 54.3871 247.032 50.5574C237.017 46.5449 225.85 46.5449 215.835 50.5574C206.424 54.3732 198.867 61.7243 194.807 71.0397ZM208.559 96.5305C207.379 93.1776 206.789 89.6423 206.831 86.0926C206.803 82.6699 207.351 79.2886 208.461 76.0621C209.528 73.0599 211.2 70.3099 213.363 67.9952C215.554 65.7368 218.167 63.9548 221.074 62.7485C227.648 60.139 234.952 60.139 241.525 62.7485C244.433 63.9548 247.046 65.7368 249.237 67.9952C251.4 70.3243 253.072 73.0739 254.139 76.0621C256.415 82.6978 256.415 89.9088 254.139 96.5445C253.086 99.5188 251.456 102.254 249.321 104.597C247.144 106.87 244.517 108.665 241.61 109.858C235.036 112.425 227.732 112.425 221.159 109.858C218.251 108.665 215.624 106.87 213.447 104.597C211.284 102.268 209.612 99.5327 208.545 96.5445L208.559 96.5305ZM121.599 79.9342C121.627 77.3386 122.188 74.7713 123.27 72.4143C124.394 69.8471 125.967 67.5184 127.919 65.5121C132.372 60.9949 138.44 58.4695 144.775 58.4978C147.977 58.4415 151.166 58.9886 154.158 60.139C156.7 61.121 158.99 62.6643 160.844 64.6423C162.642 66.5783 164.018 68.8651 164.875 71.3765C165.774 74.1401 166.28 77.0158 166.364 79.9199L121.613 79.9482L121.599 79.9342ZM181.478 86.1349C181.478 81.379 180.804 76.6511 179.497 72.0919C178.219 67.5743 176.056 63.3518 173.134 59.6901C170.072 55.9162 166.224 52.8721 161.855 50.7676C156.602 48.3404 150.871 47.1621 145.084 47.3445C139.789 47.2886 134.535 48.2846 129.633 50.2765C125.054 52.1706 120.896 54.9621 117.427 58.4978C113.971 62.0187 111.246 66.1857 109.392 70.7592C107.426 75.5989 106.429 80.7897 106.471 86.0228C106.415 91.2415 107.327 96.4324 109.125 101.328C110.867 105.888 113.494 110.04 116.865 113.562C120.278 117.111 124.422 119.875 128.987 121.699C134.086 123.705 139.522 124.701 145 124.631C159.172 124.631 170.199 119.608 178.065 109.563L167.347 101.525C164.819 104.653 161.785 107.361 158.386 109.507C154.902 111.542 150.913 112.565 146.882 112.439C143.637 112.496 140.406 112.004 137.33 111.008C134.423 110.054 131.698 108.581 129.296 106.674C126.992 104.822 125.082 102.521 123.691 99.9114C122.259 97.2176 121.528 94.2015 121.556 91.129H181.436L181.492 86.1629L181.478 86.1349ZM73.0406 49.0982H58.9664V123.901H73.0406V85.6018C73.0406 77.5912 74.8807 71.671 78.5606 67.8691C82.8309 63.8287 88.5898 61.7665 94.447 62.1592C95.6128 62.1592 96.7789 62.2573 97.9163 62.4537C99.0825 62.6643 100.22 62.9169 101.386 63.2114L102.004 48.2563C99.9674 47.611 97.8324 47.3026 95.6971 47.3165C93.3515 47.3165 91.0196 47.6673 88.7724 48.3404C86.5391 48.9577 84.4042 49.8559 82.4094 51.0342C80.471 52.1566 78.6872 53.5313 77.128 55.1305C75.5831 56.6739 74.3047 58.4695 73.3638 60.4195H73.0406V49.0702V49.0982ZM0.0140386 61.121H16.4903V123.901H30.5366V61.121H48.0663V49.2103H30.8034V32.5018C30.8034 30.2011 30.9299 27.9003 31.2108 25.6276C31.4215 23.8038 32.0114 22.0361 32.9385 20.4508C33.8234 18.9638 35.1156 17.7713 36.6748 17.0278C38.6694 16.186 40.8184 15.7932 42.9817 15.8914C44.344 15.8914 45.7207 15.9756 47.0691 16.186C48.4174 16.4105 49.7378 16.7753 51.0162 17.2662L52.5891 4.9207C50.7773 4.44371 48.9092 4.13507 47.0411 4.00882C45.3133 3.82643 43.6557 3.82643 42.0685 3.82643C32.7137 3.82643 26.2665 6.19735 22.3195 10.9953C18.3725 15.7932 16.4763 23.0743 16.4763 32.8525V49.0842H0V61.107L0.0140386 61.121Z" fill="#0069F7"/>
</g>
<defs>
<clipPath id="clip0_58_85">
<rect width="300" height="125" fill="white"/>
</clipPath>
</defs>
</svg>
