<svg width="300" height="35" viewBox="0 0 300 35" fill="none" xmlns="http://www.w3.org/2000/svg">
<g clip-path="url(#clip0_58_45)">
<path d="M0.198914 4.6428C0.198914 2.39059 1.65326 1.10373 3.63261 1.10373C4.48044 1.10373 5.89484 1.78745 6.50136 2.59164L20.9234 21.7749H21.0049V4.6428C21.0049 2.39059 22.4592 1.10373 24.4386 1.10373C26.3772 1.10373 27.8723 2.39059 27.8723 4.6428V30.38C27.8723 32.633 26.4179 33.9199 24.4386 33.9199C23.5908 33.9199 22.2163 33.2362 21.5698 32.432L7.14701 13.4905H7.0663V30.38C7.0663 32.633 5.61196 33.9199 3.63261 33.9199C1.69321 33.9199 0.198914 32.633 0.198914 30.3808V4.6428Z" fill="#F39200"/>
<path d="M31.6704 4.6428C31.6704 2.39059 33.1248 1.10373 35.1041 1.10373C37.0435 1.10373 38.5378 2.39059 38.5378 4.6428V30.38C38.5378 32.633 37.0835 33.9199 35.1041 33.9199C33.1647 33.9199 31.6704 32.633 31.6704 30.3808V4.6428Z" fill="#76B82A"/>
<path d="M42.6179 5.28581C42.6179 3.03441 43.7494 1.34546 46.1731 1.34546H57.485C59.6666 1.34546 60.7174 2.87325 60.7174 4.48162C60.7174 6.01023 59.6266 7.6186 57.485 7.6186H49.4861V14.2539H56.96C59.1823 14.2539 60.2731 15.7826 60.2731 17.3909C60.2731 18.9195 59.1416 20.5279 56.96 20.5279H49.4861V27.405H57.8486C60.0301 27.405 61.081 28.9328 61.081 30.542C61.081 32.0698 59.9902 33.6781 57.8486 33.6781H46.1331C44.113 33.6781 42.6179 32.3107 42.6179 30.2595V5.28581Z" fill="#00B8E0"/>
<path d="M63.424 4.6428C63.424 2.39059 64.8783 1.10373 66.8576 1.10373C68.7979 1.10373 70.2922 2.39059 70.2922 4.6428V20.4473C70.2922 24.6302 72.9987 27.9276 77.3218 27.9276C81.4826 27.9276 84.2699 24.4292 84.2699 20.4473V4.6428C84.2699 2.39059 85.7242 1.10373 87.7044 1.10373C89.643 1.10373 91.1381 2.39059 91.1381 4.6428V20.8095C91.1381 28.4102 84.8356 34.2015 77.3218 34.2015C69.7264 34.2015 63.4647 28.5307 63.4647 20.8095V4.6428H63.424Z" fill="#EC6608"/>
<path d="M93.4003 5.60814C93.2797 5.00501 93.199 4.68268 93.199 4.07954C93.199 2.63233 94.4104 1.10373 96.4305 1.10373C98.612 1.10373 99.6628 2.39059 100.066 4.36117L103.945 23.6242H104.026L109.965 3.75803C110.449 2.10896 111.823 1.06384 113.52 1.06384C115.217 1.06384 116.59 2.10896 117.075 3.75803L123.014 23.6242H123.095L126.973 4.36117C127.377 2.3507 128.427 1.10373 130.608 1.10373C132.629 1.10373 133.841 2.63233 133.841 4.07954C133.841 4.72256 133.8 5.04489 133.639 5.60814L127.861 30.3409C127.417 32.2309 125.923 33.8792 123.337 33.8792C121.114 33.8792 119.377 32.432 118.812 30.5819L113.52 13.0884H113.439L108.147 30.5819C107.581 32.432 105.884 33.8792 103.622 33.8792C101.076 33.8792 99.5821 32.2309 99.0971 30.3409L93.4003 5.60814Z" fill="#C7017F"/>
<path d="M155.414 5.36638C155.414 7.13592 154.242 8.70441 152.344 8.70441C150.485 8.70441 149.031 7.33697 146.283 7.33697C144.345 7.33697 142.567 8.3829 142.567 10.2729C142.567 14.9377 157.757 11.9618 157.757 23.6649C157.757 30.1391 152.384 34.1608 146.122 34.1608C142.608 34.1608 135.052 33.3566 135.052 29.0939C135.052 27.3244 136.224 25.8764 138.123 25.8764C140.264 25.8764 142.809 27.6459 145.758 27.6459C148.748 27.6459 150.404 25.957 150.404 23.7455C150.404 18.3962 135.214 21.6137 135.214 11.1178C135.214 4.76325 140.466 0.822083 146.526 0.822083C149.031 0.822083 155.414 1.78743 155.414 5.36638Z" fill="#50AF47"/>
<path d="M160.706 4.76324C160.706 2.59161 162.201 1.34464 164.302 1.34464H173.028C177.755 1.34464 181.593 4.52231 181.593 9.30755C181.593 12.4844 180.26 14.6161 177.351 15.9836V16.0642C181.229 16.6266 184.26 19.8442 184.26 23.7853C184.26 30.1798 179.977 33.6382 173.675 33.6382H164.302C162.201 33.6382 160.666 32.3115 160.666 30.1789V4.76406L160.706 4.76324ZM167.534 14.1335H171.089C173.311 14.1335 174.766 12.8067 174.766 10.5545C174.766 8.42278 173.068 7.33696 171.089 7.33696H167.534V14.1335ZM167.534 27.6459H172.907C175.371 27.6459 177.189 26.2378 177.189 23.7048C177.189 21.5738 175.533 20.1258 172.382 20.1258H167.575V27.6467L167.534 27.6459ZM186.845 5.2858C186.845 3.03441 187.976 1.34545 190.4 1.34545H201.712C203.893 1.34545 204.944 2.87324 204.944 4.48161C204.944 6.01022 203.853 7.61859 201.712 7.61859H193.713V14.2539H201.187C203.409 14.2539 204.5 15.7825 204.5 17.3909C204.5 18.9195 203.368 20.5279 201.187 20.5279H193.713V27.405H202.075C204.257 27.405 205.308 28.9328 205.308 30.542C205.308 32.0698 204.217 33.6781 202.075 33.6781H190.319C188.299 33.6781 186.805 32.3107 186.805 30.2595V5.28661L186.845 5.2858ZM233.142 14.4957C236.011 14.4957 237.143 15.9429 237.143 18.8389C237.143 27.6052 231.405 34.1608 222.316 34.1608C213.064 34.1608 206.641 26.8816 206.641 17.4715C206.641 8.06138 213.024 0.782196 222.316 0.782196C229.184 0.782196 234.84 3.99894 234.84 7.17662C234.84 9.1065 233.628 10.3535 232.012 10.3535C228.901 10.3535 228.295 7.05534 222.316 7.05534C216.62 7.05534 213.751 12.0025 213.751 17.4715C213.751 23.021 216.539 27.8877 222.316 27.8877C225.911 27.8877 230.072 25.8772 230.072 20.7289H225.426C223.568 20.7289 222.235 19.4022 222.235 17.5521C222.235 15.6621 223.689 14.455 225.426 14.455H233.142V14.4957ZM239.971 4.88371C239.971 2.71208 241.182 1.34545 243.485 1.34545H251.484C258.514 1.34545 262.837 4.48161 262.837 11.6005C262.837 16.5867 259.039 19.4421 254.393 20.1657L262.15 28.4102C262.796 29.0939 263.079 29.7777 263.079 30.4207C263.079 32.1902 261.665 33.9199 259.645 33.9199C258.837 33.9199 257.747 33.5984 257.019 32.7535L246.919 20.5686H246.838V30.4207C246.838 32.6729 245.384 33.9598 243.404 33.9598C241.465 33.9598 239.971 32.6737 239.971 30.4207V4.88371ZM246.798 15.6214H251.484C253.989 15.6214 255.726 14.1335 255.726 11.6005C255.726 9.02592 253.989 7.61859 251.484 7.61859H246.798V15.6214ZM276.209 4.88371C276.209 2.75278 277.502 1.34545 279.764 1.34545H287.844C294.55 1.34545 299.519 5.68871 299.519 12.1629C299.519 18.7991 294.389 22.9006 288.126 22.9006H283.077V30.3401C283.077 32.5923 281.623 33.8792 279.642 33.8792C277.704 33.8792 276.209 32.5931 276.209 30.3409V4.88371ZM283.036 16.9489H287.682C290.551 16.9489 292.369 14.8571 292.369 12.1629C292.369 9.42801 290.551 7.37685 287.682 7.37685H283.036V16.9489ZM272.129 25.3538V4.64278C272.129 2.39057 270.674 1.10371 268.695 1.10371C266.716 1.10371 265.26 2.39057 265.26 4.64278V25.3937H272.129V25.3538ZM265.14 30.5013C265.14 29.496 265.503 28.6918 266.19 28.048C266.876 27.4042 267.766 27.0827 268.776 27.0827C269.786 27.0827 270.633 27.405 271.321 28.048C272.048 28.691 272.371 29.5359 272.371 30.5013C272.371 31.4666 272.007 32.3107 271.321 32.9545C270.594 33.5975 269.745 33.9598 268.776 33.9598C267.805 33.9598 266.917 33.6382 266.23 32.9545C265.503 32.3115 265.14 31.4666 265.14 30.5013Z" fill="#951B81"/>
</g>
<defs>
<clipPath id="clip0_58_45">
<rect width="300" height="35" fill="white"/>
</clipPath>
</defs>
</svg>
