<svg width="275" height="78" viewBox="0 0 275 78" fill="none" xmlns="http://www.w3.org/2000/svg">
<path d="M44.266 65.32L20.235 27.18C18.992 25.135 16.742 23.767 14.174 23.767C10.26 23.767 7.08704 26.94 7.08704 30.855C7.08704 32.274 7.50404 33.596 8.22204 34.704L32.254 72.846C33.498 74.892 35.747 76.258 38.315 76.258C42.23 76.258 45.403 73.085 45.403 69.171C45.403 67.751 44.985 66.429 44.266 65.32Z" fill="#8F909E"/>
<path d="M52.49 23.769H38.316V76.258H52.49V23.769Z" fill="#1E2030"/>
<path d="M14.174 23.769H0V76.258H14.174V23.769Z" fill="#1E2030"/>
<path d="M205.808 0C210.387 0 214.285 3.8 214.285 8.379C214.285 12.861 210.388 16.66 205.808 16.66C201.326 16.66 197.526 12.861 197.526 8.379C197.526 3.801 201.326 0 205.808 0Z" fill="#1E2030"/>
<path d="M212.981 23.769H198.83V76.258H212.981V23.769Z" fill="#1E2030"/>
<path d="M249.961 77.358C237.357 77.358 222.985 69.177 222.985 50.271C222.985 31.365 237.247 22.52 250.183 22.52C258.144 22.52 267.098 25.837 272.958 33.687L263.007 42.089C259.801 37.446 255.821 34.903 250.625 34.903C244.213 34.903 237.026 38.993 237.026 49.718C237.026 60.553 244.544 64.976 250.846 64.976C255.931 64.976 261.128 61.99 264.555 55.135L274.726 62.432C269.308 71.94 260.243 77.358 249.961 77.358Z" fill="#1E2030"/>
<path d="M112.274 76.258H98.321V69.503C95.22 74.486 90.236 77.365 83.15 77.365C72.74 77.365 63.549 70.832 63.549 56.214V23.768H77.723V54.664C77.723 61.529 81.378 65.405 86.694 65.405C93.006 65.405 98.1 60.312 98.1 51.564V23.768H112.274V76.258Z" fill="#1E2030"/>
<path d="M137.508 30.855V22.513C137.508 18.594 140.685 15.418 144.604 15.418H150.023V1.243H144.596C132.853 1.243 123.334 10.763 123.334 22.505V76.258H137.508V43.036H150.023V30.855H137.508Z" fill="#1E2030"/>
<path d="M175.256 30.855V22.513C175.256 18.594 178.433 15.418 182.352 15.418H187.77V1.243H182.343C170.601 1.243 161.082 10.763 161.082 22.505V76.258H175.256V43.036H187.769V30.855H175.256Z" fill="#1E2030"/>
</svg>
